<?xml version="1.0"?>
<svg xmlns="http://www.w3.org/2000/svg" id="Capa_1" enable-background="new 0 0 512.043 512.043" height="512px" viewBox="0 0 512.043 512.043" width="512px" class=""><g><path d="m437.248 11.862-156.029 156.029c-26.776 26.776-51.335 55.68-73.435 86.429l-31.172 43.369c-22.1 30.749-46.659 59.653-73.435 86.429l-60.096 60.096-4.95-4.95c-5.467-5.467-14.332-5.467-19.799 0l-4.243 4.243c-5.467 5.467-5.467 14.332 0 19.799l34.648 34.648c5.467 5.467 14.332 5.467 19.799 0l4.243-4.243c5.467-5.467 5.467-14.332 0-19.799l-4.95-4.95 60.096-60.096c26.776-26.776 55.68-51.334 86.428-73.435l43.369-31.172c30.748-22.1 59.653-46.659 86.428-73.435l156.03-156.029c13.2-13.199-49.733-76.132-62.932-62.933z" fill="#ffc144" data-original="#FFC144" class="active-path" data-old_color="#ffc144" style="fill:#FFBA57"/><path d="m400.189 288.004c.11 16.41-3.83 32.59-11.45 47.12-12.98 24.75-27.32 41.96-36.53 51.63-5.67 5.94-13.51 9.3-21.72 9.3h-54.94c-18.22 0-54.598-8.161-61.56-25-21.823-52.782-103.82-203.51-103.82-203.51s-9.68-15.99 13.32-27.49 65.02-14.7 81.51-6.85c2.44-6.94 8.62-12.17 16.24-13.2 1.76-.24 3.5-.46 5.22-.66 12.14-1.46 22.74 8.2 22.4 20.42l.09-3.16c.3-10.99 9.43-19.69 20.41-19.44 2.18.05 4.33.12 6.44.22 11.16.51 19.73 10.06 19.05 21.21l-.17 2.72c.84-12.28 12.49-20.89 24.49-18.11.58.13 1.16.27 1.73.4 9.14 2.2 15.45 10.55 15.2 19.95l-.36 13.75c.39-14.98 16.52-24.21 29.65-16.99 3.47 1.91 6.19 3.61 8.17 4.92 2.74 1.83 4.99 4.29 6.56 7.18 17.05 31.39 19.83 99.94 20.07 135.59z" fill="#ff5a58" data-original="#FF5A58" class="" data-old_color="#ff5a58" style="fill:#FF5252"/><circle cx="256.989" cy="262.054" fill="#fff" r="76" data-original="#FFF"/><path d="m275.549 396.054c-31.94 0-77.06-4.5-95.56-28.5-35.46-46-68.35-133.63-81.93-172.55-3.81-10.91 1.49-22.9 12.11-27.46l8.36-3.58c10.46-4.48 22.6-.25 28.02 9.75l55 101.63c7.28 13.45 13.31 27.53 18.01 42.07l16.03 49.56c5.6 17.34 21.74 29.08 39.96 29.08z" fill="#ff5a58" data-original="#FF5A58" class="" data-old_color="#ff5a58" style="fill:#FF5252"/><path d="m257.674 186.605c0 5.524-4.478 10.001-10.001 10.001-5.524 0-10.001-4.478-10.001-10.001s4.478-10.001 10.001-10.001 10.001 4.477 10.001 10.001zm249.577-104.739-105.472 105.473c6.717 33.644 8.234 74.373 8.411 100.598.12 17.969-4.235 35.892-12.594 51.832-13.342 25.44-28.107 43.344-38.145 53.882-7.527 7.886-18.081 12.403-28.961 12.403h-54.94c-48.324 0-81.778-9.377-99.594-27.893-14.133 12.02-27.877 24.695-40.958 37.776l-53.158 53.157c7.313 9.407 6.649 23.049-1.989 31.688l-4.243 4.243c-4.679 4.678-10.825 7.018-16.971 7.018s-12.292-2.339-16.971-7.018l-34.648-34.648c-9.357-9.358-9.357-24.584 0-33.942l4.243-4.243c8.64-8.639 22.28-9.302 31.688-1.989l53.157-53.157c16.215-16.215 31.773-33.416 46.312-51.197-24.317-46.287-44.525-100.967-53.801-127.551-4.479-12.828-.216-26.814 9.791-35.153-.44-3.161-.399-6.91.77-10.958 2.502-8.655 9.177-15.747 19.839-21.078 21.985-10.993 59.216-15.081 81.342-9.933 4.739-5.986 11.668-10.019 19.541-11.083 1.814-.248 3.621-.476 5.406-.683 8.069-.974 16.178 1.391 22.473 6.506 5.588-5.566 13.325-8.933 21.808-8.751 2.441.057 4.627.131 6.687.229 8.073.369 15.509 3.889 20.922 9.913.179.199.354.4.528.603 6.925-4.727 15.495-6.349 23.703-4.449.021.005.043.01.066.015l108.684-108.684c15.319-15.319 43.921 9.979 55.508 21.567 11.587 11.586 36.884 40.19 21.566 55.507zm-184.254 180.517c-.002-.133-.002-.267.002-.4 0-11.92-3.27-23.65-9.44-33.92-5.635-9.374-13.443-17.153-22.748-22.696-6.754 3.875-12.665 8.822-17.557 14.636l5.031 1.432c5.312 1.511 8.394 7.042 6.882 12.354-1.511 5.312-7.042 8.395-12.354 6.882l-10.206-2.904c-.634 1.577-1.213 3.188-1.733 4.827-1.088 3.431-1.875 6.901-2.375 10.38h10.836c5.523 0 10 4.477 10 10s-4.477 10-10 10h-10.621c.862 5.251 2.351 10.376 4.414 15.256l9.756-5.42c4.827-2.681 10.916-.943 13.598 3.885s.942 10.916-3.885 13.598l-9.011 5.006c4.583 5.437 10.077 10.172 16.365 13.928.345-.199.688-.4 1.029-.605 19.925-11.96 31.872-32.968 32.017-56.239zm-108.081-127.007-2.377 56.238c2.569.383 4.876 1.744 6.479 3.859 3.33 4.39 2.46 10.68-1.94 14.01-10.689 8.081-18.474 18.964-22.682 31.634l15.947 29.467c7.557 13.962 13.859 28.684 18.73 43.753l2.836 8.767c7.956 3.252 16.571 4.958 25.149 4.958 3.389 0 6.763-.265 10.092-.785-4.167-3.65-7.975-7.698-11.37-12.086l-6.936 3.854c-4.827 2.683-10.916.942-13.598-3.885-2.682-4.828-.942-10.916 3.885-13.598l6.323-3.513c-.241-.531-.477-1.065-.707-1.602-3.237-7.538-5.351-15.445-6.331-23.472h-6.398c-5.523 0-10-4.477-10-10s4.477-10 10-10h6.3c.621-5.542 1.783-11.043 3.49-16.426.457-1.44.952-2.868 1.483-4.276l-8.263-2.351c-5.312-1.511-8.394-7.042-6.882-12.354 1.511-5.312 7.042-8.394 12.354-6.882l12.217 3.476c8.466-12.409 20.125-22.555 33.855-29.147 2.993-1.438 6.345-1.252 9.295.32 10.999 5.861 20.828 13.57 28.525 23.3l1.349-51.584v-.006c0-.021.001-.042.001-.063l.358-13.688c.107-4.036-2.222-7.699-5.735-9.334-.085-.037-.169-.074-.252-.113-.489-.211-1-.383-1.529-.512l-1.602-.371c-2.982-.69-5.907-.083-8.306 1.695-2.391 1.771-3.82 4.377-4.022 7.339-.376 5.498-5.13 9.659-10.63 9.296-5.5-.36-9.671-5.102-9.327-10.602l.17-2.72c.164-2.688-.741-5.283-2.548-7.294-1.803-2.007-4.281-3.18-6.978-3.303-1.913-.091-3.94-.16-6.214-.212-5.467-.127-10.034 4.233-10.184 9.715l-.09 3.163v.009c-.157 5.52-4.743 9.868-10.277 9.712-5.52-.155-9.869-4.754-9.715-10.274.082-2.955-1.075-5.678-3.258-7.669-2.187-1.994-5.01-2.893-7.952-2.544-1.695.197-3.369.409-5.062.64-3.363.452-6.203 2.504-7.673 5.461zm-92.584 17.16c13.107-2.058 26.392 4.205 33.009 16.413l27.134 50.139c.937-1.627 1.929-3.226 2.974-4.794 1.985-2.978 4.146-5.818 6.473-8.51l2.768-65.481c-16.326-3.549-47.983-.678-66.729 8.695-2.228 1.114-4.12 2.308-5.629 3.538zm-56.624 328.447-34.648-34.648c-.78-.78-1.804-1.17-2.828-1.17s-2.048.39-2.828 1.17l-4.243 4.242c-1.56 1.56-1.559 4.098 0 5.658l34.648 34.648c1.56 1.559 4.097 1.56 5.657 0l4.242-4.243c1.56-1.56 1.56-4.097 0-5.657zm98.129-118.769c-3.721-5.511-7.399-11.403-11.011-17.568-13.486 16.119-27.766 31.73-42.577 46.542l-53.025 53.024 10.606 10.608 53.024-53.025c13.719-13.718 28.146-27.002 42.983-39.581zm68.183 20.32c-2.482-3.809-4.495-7.992-5.946-12.482l-16.03-49.56c-4.496-13.91-10.313-27.498-17.29-40.387l-55-101.631c-2.974-5.487-9.546-7.775-15.288-5.317l-8.229 3.523c-.079.035-.159.07-.238.103-5.696 2.511-8.553 9.044-6.5 14.925 12.215 35.009 43.78 119.862 77.687 166.118.125.159.243.32.356.484.787 1.066 1.577 2.115 2.366 3.138 7.698 9.986 22.878 17.148 44.112 21.086zm158.17-94.463c-.417-61.882-7.291-109.588-18.858-130.884-.79-1.453-1.939-2.71-3.326-3.636-2.266-1.5-4.781-3.013-7.439-4.477-4.452-2.448-8.349-.752-9.818.091-1.463.84-4.881 3.339-5.013 8.398l-2.737 104.419c.01 14.57-3.72 29.01-10.79 41.78-7.28 13.15-17.98 24.22-30.93 32.01-13.38 8.04-28.66 12.29-44.19 12.29h-.03c-5.922 0-11.858-.625-17.672-1.842l5.717 17.675.001.004c4.279 13.25 16.514 22.153 30.444 22.153h54.94c5.442 0 10.723-2.262 14.487-6.205 9.149-9.606 22.639-25.977 34.907-49.37 6.841-13.042 10.405-27.706 10.307-42.406zm101.699-219.127c-.837-4.048-6.907-15.004-20.347-28.444-13.439-13.44-24.396-19.51-28.444-20.347l-103.831 103.833c1.627 1.986 3.002 4.178 4.083 6.521 3.953-1.801 8.167-2.703 12.385-2.703 4.961 0 9.926 1.248 14.472 3.747 3.136 1.726 6.119 3.523 8.87 5.343 4.11 2.744 7.497 6.452 9.83 10.747 2.701 4.973 5.066 10.767 7.135 17.151z" data-original="#000000" class="" style="fill:#000000"/></g> </svg>
