<?xml version="1.0"?>
<svg xmlns="http://www.w3.org/2000/svg" xmlns:xlink="http://www.w3.org/1999/xlink" version="1.1" id="Capa_1" x="0px" y="0px" viewBox="0 0 512.016 512.016" style="enable-background:new 0 0 512.016 512.016;" xml:space="preserve" width="512px" height="512px" class=""><g><g>
	<path style="fill:#A50043;" d="M306.317,332.375l-14.377-14.377l-61.734,4.458l-4.263,61.539l14.377,14.377   c-7.609,30.12,0.362,63.365,23.925,86.928c35.622,35.622,93.378,35.622,129,0s35.622-93.378,0-129   C369.682,332.737,336.436,324.765,306.317,332.375z M356.794,448.848c-15.491,15.491-40.606,15.491-56.097,0   s-15.491-40.606,0-56.097c15.491-15.491,40.606-15.491,56.097,0C372.284,408.242,372.284,433.357,356.794,448.848z" data-original="#A50043" class=""/>
	<path style="fill:#CEE2E9;" d="M291.94,317.998l-65.997,65.997L31.519,189.57c-8.119-8.119-8.119-21.284,0-29.403l5.952-5.952   c25.042-25.042,65.643-25.042,90.686,0L291.94,317.998z" data-original="#CEE2E9" class=""/>
	<path style="fill:#4680FF" d="M497.008,272h-482c-8.284,0-15-6.716-15-15V15c0-8.284,6.716-15,15-15h482c8.284,0,15,6.716,15,15   v52.214c0,7.019-4.867,13.1-11.716,14.636c-25.08,5.627-43.284,28.4-43.284,54.15s18.204,48.523,43.284,54.15   c6.849,1.536,11.716,7.617,11.716,14.636V257C512.008,265.284,505.292,272,497.008,272z" data-original="#0095FF" class="" data-old_color="#0095FF"/>
	<path style="fill:#536DFE" d="M500.292,190.15c-25.08-5.627-43.284-28.4-43.284-54.15h-457v121c0,8.284,6.716,15,15,15h482   c8.284,0,15-6.716,15-15v-52.214C512.008,197.768,507.141,191.687,500.292,190.15z" data-original="#0063E5" class="" data-old_color="#0063E5"/>
	<path style="fill:#87B9FF" d="M143.009,60.5c8.262,0,15-6.739,15-15c0-8.262-6.738-15-15-15s-15,6.738-15,15   C128.008,53.762,134.747,60.5,143.009,60.5z" data-original="#93C0FF" class="" data-old_color="#93C0FF"/>
	<path style="fill:#87B9FF" d="M143.009,120.5c8.262,0,15-6.739,15-15s-6.738-15-15-15s-15,6.738-15,15   S134.747,120.5,143.009,120.5z" data-original="#93C0FF" class="" data-old_color="#93C0FF"/>
	<path style="fill:#4680FF" d="M143.009,180.858c8.262,0,15-6.738,15-15s-6.738-15-15-15s-15,6.738-15,15   C128.008,174.119,134.747,180.858,143.009,180.858z" data-original="#0095FF" class="" data-old_color="#0095FF"/>
	<path style="fill:#4680FF" d="M143.009,241.5c8.262,0,15-6.739,15-15c0-8.262-6.738-15-15-15s-15,6.738-15,15   C128.008,234.762,134.747,241.5,143.009,241.5z" data-original="#0095FF" class="" data-old_color="#0095FF"/>
	<path style="fill:#F90053;" d="M179.681,398.371l14.377-14.376l-4.638-61.915l-61.359-4.082l-14.377,14.377   c-30.12-7.609-63.365,0.362-86.928,23.925c-35.622,35.622-35.622,93.378,0,129s93.378,35.622,129,0   C179.319,461.737,187.29,428.491,179.681,398.371z M63.208,448.848c-15.491-15.491-15.491-40.606,0-56.097   c15.491-15.491,40.606-15.491,56.097,0s15.491,40.606,0,56.097S78.699,464.339,63.208,448.848z" data-original="#F90053" class=""/>
	<path style="fill:#DCF4FF" d="M194.058,383.995l-65.997-65.997l194.424-194.424c8.119-8.119,21.284-8.119,29.403,0l5.952,5.952   c25.042,25.042,25.042,65.643,0,90.686L194.058,383.995z" data-original="#E8F6FC" class="active-path" data-old_color="#E8F6FC"/>
</g></g> </svg>
