<?xml version="1.0" encoding="iso-8859-1"?>
<!-- Generator: Adobe Illustrator 21.0.0, SVG Export Plug-In . SVG Version: 6.00 Build 0)  -->
<svg version="1.1" id="Capa_1" xmlns="http://www.w3.org/2000/svg" xmlns:xlink="http://www.w3.org/1999/xlink" x="0px" y="0px"
	 viewBox="0 0 512 512" style="enable-background:new 0 0 512 512;" xml:space="preserve">
<linearGradient id="SVGID_1_" gradientUnits="userSpaceOnUse" x1="275.3656" y1="130.213" x2="275.3656" y2="474.959" gradientTransform="matrix(1.0039 0 0 -1.0039 0.1922 516.5609)">
	<stop  offset="0" style="stop-color:#A7F3CE"/>
	<stop  offset="1" style="stop-color:#61DB99"/>
</linearGradient>
<path style="fill:url(#SVGID_1_);" d="M58.602,398.946c-9.553,0-17.327-7.772-17.327-17.327v-59.603
	c0-6.997,3.429-13.669,9.175-17.849c8.786-6.396,14.033-16.687,14.033-27.53s-5.246-21.135-14.035-27.531
	c-5.743-4.179-9.173-10.851-9.173-17.848v-59.604c0-9.554,7.772-17.327,17.327-17.327h436.071c9.553,0,17.327,7.772,17.327,17.327
	v59.604c0,6.996-3.429,13.668-9.175,17.848c-8.786,6.396-14.033,16.687-14.033,27.53s5.247,21.134,14.034,27.531
	c5.743,4.178,9.173,10.851,9.173,17.848v59.603c0,9.554-7.772,17.327-17.327,17.327H58.602V398.946z"/>
<linearGradient id="SVGID_2_" gradientUnits="userSpaceOnUse" x1="275.3661" y1="280.083" x2="275.3661" y2="99.413" gradientTransform="matrix(1.0039 0 0 -1.0039 0.1922 516.5609)">
	<stop  offset="0" style="stop-color:#A7F3CE"/>
	<stop  offset="1" style="stop-color:#61DB99"/>
</linearGradient>
<path style="fill:url(#SVGID_2_);" d="M479.635,276.638c0-14.364,7.015-27.083,17.804-34.934c3.357-2.444,5.404-6.292,5.404-10.443
	v-59.604c0-4.511-3.656-8.168-8.168-8.168H58.602c-4.511,0-8.168,3.656-8.168,8.168v59.604c0,4.152,2.047,8,5.404,10.443
	c10.788,7.852,17.804,20.57,17.804,34.934c0,14.364-7.015,27.083-17.804,34.934c-3.357,2.444-5.404,6.292-5.404,10.443v59.604
	c0,4.511,3.656,8.168,8.168,8.168h436.071c4.511,0,8.168-3.656,8.168-8.168v-59.604c0-4.152-2.047-8-5.404-10.443
	C486.649,303.721,479.635,291.002,479.635,276.638z"/>
<linearGradient id="SVGID_3_" gradientUnits="userSpaceOnUse" x1="406.0065" y1="49.4115" x2="170.7065" y2="391.2115" gradientTransform="matrix(1.0039 0 0 -1.0039 0.1922 516.5609)">
	<stop  offset="0" style="stop-color:#61DB99;stop-opacity:0"/>
	<stop  offset="1" style="stop-color:#009E74"/>
</linearGradient>
<path style="fill:url(#SVGID_3_);" d="M502.825,249.108c5.744-4.179,9.175-10.852,9.175-17.848v-35.74l-41.191-41.191H58.602
	c-9.553,0-17.327,7.772-17.327,17.327v59.604c0,6.996,3.429,13.667,9.173,17.848c8.787,6.396,14.034,16.688,14.034,27.531
	s-5.246,21.134-14.033,27.53c-5.744,4.179-9.175,10.852-9.175,17.849v35.342l41.587,41.587h411.81
	c9.553,0,17.327-7.772,17.327-17.327v-59.603c0-6.997-3.429-13.669-9.173-17.848c-8.787-6.397-14.034-16.688-14.034-27.531
	C488.793,265.796,494.039,255.505,502.825,249.108z"/>
<linearGradient id="SVGID_4_" gradientUnits="userSpaceOnUse" x1="234.2516" y1="206.013" x2="234.2516" y2="586.903" gradientTransform="matrix(1.0039 0 0 -1.0039 0.1922 516.5609)">
	<stop  offset="0" style="stop-color:#FF4C54"/>
	<stop  offset="1" style="stop-color:#BE3F45"/>
</linearGradient>
<path style="fill:url(#SVGID_4_);" d="M17.327,357.67C7.772,357.67,0,349.898,0,340.344v-59.603c0-6.997,3.429-13.669,9.175-17.849
	c8.786-6.396,14.033-16.687,14.033-27.53c0-10.842-5.246-21.135-14.035-27.531C3.429,203.653,0,196.98,0,189.984V130.38
	c0-9.554,7.772-17.327,17.327-17.327h436.071c9.553,0,17.327,7.772,17.327,17.327v59.604c0,6.996-3.429,13.668-9.175,17.848
	c-8.786,6.396-14.033,16.687-14.033,27.53c0,10.842,5.247,21.134,14.034,27.531c5.743,4.178,9.173,10.851,9.173,17.848v59.603
	c0,9.554-7.772,17.327-17.327,17.327H17.327V357.67z"/>
<linearGradient id="SVGID_5_" gradientUnits="userSpaceOnUse" x1="234.2516" y1="321.193" x2="234.2516" y2="140.533" gradientTransform="matrix(1.0039 0 0 -1.0039 0.1922 516.5609)">
	<stop  offset="0" style="stop-color:#FF4C54"/>
	<stop  offset="1" style="stop-color:#BE3F45"/>
</linearGradient>
<path style="fill:url(#SVGID_5_);" d="M438.358,235.362c0-14.364,7.015-27.083,17.804-34.934c3.357-2.444,5.404-6.292,5.404-10.443
	v-59.604c0-4.511-3.656-8.168-8.168-8.168H17.327c-4.511,0-8.168,3.656-8.168,8.168v59.604c0,4.152,2.047,8,5.404,10.443
	c10.788,7.852,17.804,20.57,17.804,34.934c0,14.364-7.015,27.083-17.804,34.934c-3.357,2.444-5.404,6.292-5.404,10.443v59.604
	c0,4.511,3.656,8.168,8.168,8.168h436.071c4.511,0,8.168-3.656,8.168-8.168V280.74c0-4.152-2.047-8-5.404-10.443
	C445.374,262.445,438.358,249.726,438.358,235.362z"/>
<path style="fill:#FFFFFF;" d="M368.265,343.721c-4.158,0-7.529-3.37-7.529-7.529v-20.952c0-4.159,3.371-7.529,7.529-7.529
	c4.158,0,7.529,3.37,7.529,7.529v20.952C375.794,340.351,372.423,343.721,368.265,343.721z M368.265,292.651
	c-4.158,0-7.529-3.37-7.529-7.529v-30.118c0-4.159,3.371-7.529,7.529-7.529c4.158,0,7.529,3.37,7.529,7.529v30.118
	C375.794,289.28,372.423,292.651,368.265,292.651z M368.265,232.416c-4.158,0-7.529-3.37-7.529-7.529v-30.118
	c0-4.159,3.371-7.529,7.529-7.529c4.158,0,7.529,3.37,7.529,7.529v30.118C375.794,229.045,372.423,232.416,368.265,232.416z
	 M368.265,172.181c-4.158,0-7.529-3.37-7.529-7.529v-30.118c0-4.159,3.371-7.529,7.529-7.529c4.158,0,7.529,3.37,7.529,7.529v30.118
	C375.794,168.809,372.423,172.181,368.265,172.181z"/>
<linearGradient id="SVGID_6_" gradientUnits="userSpaceOnUse" x1="192.5381" y1="367.134" x2="192.5381" y2="353.45" gradientTransform="matrix(1.0039 0 0 -1.0039 0.1922 516.5609)">
	<stop  offset="0" style="stop-color:#FFF465"/>
	<stop  offset="1" style="stop-color:#FFE600"/>
</linearGradient>
<path style="fill:url(#SVGID_6_);" d="M342.176,161.725H44.795c-3.794,0-6.869-3.075-6.869-6.869c0-3.794,3.075-6.869,6.869-6.869
	h297.381c3.794,0,6.869,3.075,6.869,6.869C349.044,158.65,345.969,161.725,342.176,161.725z"/>
<g>
	<path style="fill:#BE3F45;" d="M404.393,160.032v150.66c0,3.794-3.075,6.869-6.869,6.869s-6.869-3.075-6.869-6.869v-150.66
		c0-3.794,3.075-6.869,6.869-6.869C401.317,153.163,404.393,156.238,404.393,160.032z"/>
	<path style="fill:#BE3F45;" d="M427.849,160.032v150.66c0,3.794-3.075,6.869-6.869,6.869c-3.794,0-6.869-3.075-6.869-6.869v-150.66
		c0-3.794,3.075-6.869,6.869-6.869C424.774,153.163,427.849,156.238,427.849,160.032z"/>
</g>
<linearGradient id="SVGID_7_" gradientUnits="userSpaceOnUse" x1="192.5381" y1="206.75" x2="192.5381" y2="193.066" gradientTransform="matrix(1.0039 0 0 -1.0039 0.1922 516.5609)">
	<stop  offset="0" style="stop-color:#FFF465"/>
	<stop  offset="1" style="stop-color:#FFE600"/>
</linearGradient>
<path style="fill:url(#SVGID_7_);" d="M342.176,322.738H44.795c-3.794,0-6.869-3.075-6.869-6.869c0-3.794,3.075-6.869,6.869-6.869
	h297.381c3.794,0,6.869,3.075,6.869,6.869C349.044,319.663,345.969,322.738,342.176,322.738z"/>
<g>
	<path style="fill:#FFFFFF;" d="M50.936,247.777v-24.829c0-6.541,1.788-11.347,5.364-14.419c3.576-3.072,8.241-4.607,13.998-4.607
		c5.93,0,10.712,1.438,14.347,4.309c3.633,2.873,5.45,6.585,5.45,11.134c0,1.821-0.349,3.058-1.046,3.712
		c-0.698,0.655-1.89,0.982-3.576,0.982c-3.024,0-4.565-0.995-4.622-2.987c-0.349-6.086-3.751-9.13-10.204-9.13
		c-6.977,0-10.466,3.668-10.466,11.006v24.829c0,7.338,3.546,11.007,10.64,11.007c2.093,0,3.837-0.299,5.233-0.897
		c1.395-0.597,2.398-1.464,3.009-2.602c0.61-1.137,1.032-2.133,1.265-2.987c0.232-0.853,0.407-1.905,0.523-3.157
		c0.175-1.991,1.686-2.987,4.535-2.987c1.686,0,2.891,0.328,3.619,0.981c0.727,0.655,1.09,1.891,1.09,3.712
		c0,4.722-1.831,8.561-5.494,11.519c-3.663,2.959-8.46,4.436-14.39,4.436c-5.756,0-10.409-1.536-13.955-4.608
		C52.709,259.125,50.936,254.318,50.936,247.777z"/>
	<path style="fill:#FFFFFF;" d="M98.117,247.777v-24.829c0-6.541,1.773-11.347,5.32-14.419c3.546-3.072,8.285-4.607,14.216-4.607
		s10.684,1.536,14.26,4.607c3.576,3.072,5.364,7.879,5.364,14.419v24.829c0,6.542-1.788,11.348-5.364,14.419
		c-3.576,3.072-8.33,4.608-14.26,4.608s-10.67-1.536-14.216-4.608C99.89,259.125,98.117,254.318,98.117,247.777z M107.362,247.777
		c0,7.338,3.43,11.007,10.291,11.007c3.314,0,5.872-0.91,7.675-2.731c1.802-1.82,2.704-4.578,2.704-8.276v-24.829
		c0-3.696-0.903-6.455-2.704-8.276c-1.803-1.82-4.361-2.731-7.675-2.731c-6.861,0-10.291,3.668-10.291,11.006V247.777z"/>
	<path style="fill:#FFFFFF;" d="M147.828,247.777v-40.955c0-0.967,0.45-1.692,1.352-2.176c0.901-0.483,1.991-0.725,3.271-0.725
		c1.278,0,2.368,0.242,3.271,0.725c0.901,0.484,1.351,1.209,1.351,2.176v40.955c0,3.698,0.93,6.456,2.791,8.276
		c1.86,1.821,4.476,2.731,7.85,2.731c7.152,0,10.727-3.669,10.727-11.007v-40.955c0-0.967,0.45-1.692,1.351-2.176
		c0.901-0.483,1.991-0.725,3.271-0.725c1.278,0,2.368,0.242,3.271,0.725c0.901,0.484,1.352,1.209,1.352,2.176v40.955
		c0,6.542-1.818,11.348-5.451,14.419c-3.634,3.072-8.475,4.608-14.521,4.608c-5.989,0-10.801-1.536-14.433-4.608
		C149.646,259.125,147.828,254.318,147.828,247.777z"/>
	<path style="fill:#FFFFFF;" d="M198.935,263.306v-56.484c0-0.796,0.333-1.478,1.003-2.048c0.668-0.568,1.526-0.853,2.573-0.853
		h17.006c5.814,0,10.451,1.508,13.91,4.522c3.459,3.016,5.189,7.764,5.189,14.249v0.683c0,6.484-1.788,11.249-5.364,14.292
		c-3.576,3.044-8.329,4.565-14.26,4.565h-10.814v21.075c0,0.911-0.451,1.635-1.351,2.175c-0.903,0.541-1.993,0.81-3.271,0.81
		c-1.221,0-2.298-0.269-3.227-0.81C199.4,264.941,198.935,264.216,198.935,263.306z M208.18,235.063h10.814
		c3.314,0,5.872-0.924,7.675-2.773c1.801-1.848,2.704-4.621,2.704-8.318v-1.024c0-3.696-0.903-6.455-2.704-8.276
		c-1.803-1.82-4.361-2.731-7.675-2.731H208.18V235.063z"/>
	<path style="fill:#FFFFFF;" d="M245.856,247.777v-24.829c0-6.541,1.773-11.347,5.32-14.419c3.546-3.072,8.285-4.607,14.216-4.607
		s10.684,1.536,14.26,4.607c3.576,3.072,5.364,7.879,5.364,14.419v24.829c0,6.542-1.788,11.348-5.364,14.419
		c-3.576,3.072-8.33,4.608-14.26,4.608s-10.67-1.536-14.216-4.608C247.629,259.125,245.856,254.318,245.856,247.777z
		 M255.101,247.777c0,7.338,3.43,11.007,10.291,11.007c3.314,0,5.872-0.91,7.675-2.731c1.802-1.82,2.704-4.578,2.704-8.276v-24.829
		c0-3.696-0.902-6.455-2.704-8.276c-1.803-1.82-4.361-2.731-7.675-2.731c-6.861,0-10.291,3.668-10.291,11.006V247.777z"/>
	<path style="fill:#FFFFFF;" d="M295.83,263.306v-56.398c0-1.991,1.54-2.987,4.622-2.987c1.627,0,2.935,0.356,3.924,1.066
		c0.988,0.712,2.006,2.062,3.052,4.053l19.362,36.945v-39.164c0-0.967,0.45-1.692,1.352-2.176c0.901-0.483,1.991-0.725,3.271-0.725
		c1.278,0,2.368,0.242,3.271,0.725c0.901,0.484,1.351,1.209,1.351,2.176v56.484c0,0.911-0.451,1.635-1.351,2.176
		c-0.902,0.541-1.993,0.81-3.271,0.81c-2.442,0-4.274-1.109-5.494-3.328l-20.844-38.823v39.164c0,0.911-0.451,1.635-1.351,2.176
		c-0.902,0.541-1.993,0.81-3.271,0.81c-1.221,0-2.298-0.269-3.227-0.81C296.293,264.941,295.83,264.216,295.83,263.306z"/>
</g>
<g>
</g>
<g>
</g>
<g>
</g>
<g>
</g>
<g>
</g>
<g>
</g>
<g>
</g>
<g>
</g>
<g>
</g>
<g>
</g>
<g>
</g>
<g>
</g>
<g>
</g>
<g>
</g>
<g>
</g>
</svg>
