<?xml version="1.0" encoding="iso-8859-1"?>
<!-- Generator: Adobe Illustrator 21.0.0, SVG Export Plug-In . SVG Version: 6.00 Build 0)  -->
<svg version="1.1" id="Capa_1" xmlns="http://www.w3.org/2000/svg" xmlns:xlink="http://www.w3.org/1999/xlink" x="0px" y="0px"
	 viewBox="0 0 512 512" style="enable-background:new 0 0 512 512;" xml:space="preserve">
<linearGradient id="SVGID_1_" gradientUnits="userSpaceOnUse" x1="90.2776" y1="281.4287" x2="346.9676" y2="201.5587" gradientTransform="matrix(1.0039 0 0 -1.0039 0.1922 516.5609)">
	<stop  offset="0" style="stop-color:#FFB92D"/>
	<stop  offset="1" style="stop-color:#F59500"/>
</linearGradient>
<path style="fill:url(#SVGID_1_);" d="M467.628,351.079L333.901,96.529c-7.497-14.271-21.902-23.549-37.98-24.526l-23.589-1.405
	L185.42,65.39l-1.687-0.107c-0.856-0.053-1.701-0.08-2.544-0.08c-0.442,0-0.896,0.013-1.352,0.027
	c-9.452,0.228-18.475,3.36-25.931,8.809c-4.82,3.508-8.996,7.979-12.21,13.254l-58.852,96.685
	c-8.394,13.803-8.956,31.005-1.433,45.317L215.087,483.75c6.828,12.986,18.3,21.942,31.286,25.918
	c10.589,3.253,22.197,3.186,33.134-0.723c2.329-0.83,4.632-1.834,6.895-3.012l20.965-11.018l138.065-72.533
	C471.256,408.819,481.19,376.89,467.628,351.079z M202.623,189.091c-0.615,0.589-1.219,1.152-1.847,1.687
	c-0.268,0.241-0.562,0.482-0.843,0.696c-0.924,0.723-1.887,1.392-2.865,1.995c-0.334,0.214-0.656,0.415-0.991,0.589
	c-0.334,0.214-0.683,0.402-1.017,0.562c-11.54,5.997-26.092,4.163-35.785-5.529c-11.982-11.995-11.982-31.381,0-43.349
	c10.911-10.924,27.993-11.888,40.015-2.878c0.803,0.602,1.606,1.258,2.383,1.968c0.308,0.308,0.629,0.589,0.951,0.911
	C214.592,157.71,214.592,177.096,202.623,189.091z"/>
<linearGradient id="SVGID_2_" gradientUnits="userSpaceOnUse" x1="414.4989" y1="226.274" x2="213.6189" y2="227.094" gradientTransform="matrix(1.0039 0 0 -1.0039 0.1922 516.5609)">
	<stop  offset="0" style="stop-color:#BE3F45;stop-opacity:0"/>
	<stop  offset="1" style="stop-color:#BE3F45"/>
</linearGradient>
<path style="fill:url(#SVGID_2_);" d="M215.087,483.75c6.828,12.986,18.3,21.942,31.286,25.918
	c10.589,3.253,22.197,3.186,33.134-0.723c2.329-0.83,4.632-1.834,6.895-3.012l20.965-11.018l138.065-72.533
	c25.824-13.562,35.758-45.491,22.197-71.302l-62.472-118.916l-92.19-92.19c-3.24-3.907-7.137-7.315-11.609-10.02l-20.234-12.228
	l-75.959-45.896c-6.231-3.764-13.135-5.91-20.139-6.466l-1.174-0.074c-0.363-0.02-0.728-0.027-1.092-0.038
	c-0.46-0.018-0.923-0.041-1.379-0.043c-0.822,0-1.644,0.034-2.467,0.078c-0.333,0.015-0.665,0.04-0.996,0.062
	c-7.019,0.529-13.945,2.654-20.202,6.406l-3.829,2.297c-4.812,3.506-8.982,7.972-12.192,13.24l-58.852,96.685
	c-8.394,13.803-8.956,31.005-1.433,45.317L215.087,483.75z M159.274,145.741c10.911-10.924,27.993-11.888,40.015-2.878
	c0.803,0.602,1.606,1.258,2.383,1.968c0.308,0.308,0.629,0.589,0.951,0.911c11.969,11.969,11.969,31.353,0,43.349
	c-0.615,0.589-1.219,1.152-1.847,1.687c-0.268,0.241-0.562,0.482-0.843,0.696c-0.924,0.723-1.887,1.392-2.865,1.995
	c-0.334,0.214-0.656,0.415-0.991,0.589c-0.334,0.214-0.683,0.402-1.017,0.562c-11.54,5.997-26.092,4.163-35.785-5.529
	C147.293,177.096,147.293,157.71,159.274,145.741z"/>
<linearGradient id="SVGID_3_" gradientUnits="userSpaceOnUse" x1="44.0665" y1="337.2405" x2="234.1465" y2="147.1605" gradientTransform="matrix(1.0039 0 0 -1.0039 0.1922 516.5609)">
	<stop  offset="0" style="stop-color:#FFF465"/>
	<stop  offset="1" style="stop-color:#FFE600"/>
</linearGradient>
<path style="fill:url(#SVGID_3_);" d="M301.357,129.954l-20.234-12.228l-75.959-45.895c-14.58-8.805-32.838-8.836-47.448-0.075
	l-97.067,58.228c-13.856,8.307-22.344,23.279-22.344,39.442v287.438c0,29.159,23.641,52.8,52.815,52.8h179.645
	c29.16,0,52.8-23.641,52.8-52.8V169.32C323.566,153.202,315.137,138.291,301.357,129.954z M159.269,189.087
	c-11.972-11.987-11.972-31.376,0-43.347c10.916-10.916,27.998-11.88,40.015-2.88c0.814,0.603,1.613,1.267,2.382,1.975
	c0.316,0.301,0.633,0.588,0.95,0.905c11.971,11.971,11.971,31.361,0,43.347c-0.603,0.588-1.207,1.161-1.839,1.689
	c-0.271,0.241-0.558,0.483-0.844,0.694c-0.92,0.724-1.884,1.402-2.865,2.005c-0.331,0.211-0.664,0.408-0.995,0.588
	c-0.331,0.211-0.679,0.392-1.01,0.558C183.513,200.621,168.964,198.782,159.269,189.087z"/>
<linearGradient id="SVGID_4_" gradientUnits="userSpaceOnUse" x1="188.418" y1="122.7421" x2="104.9981" y2="206.1621" gradientTransform="matrix(1.0039 0 0 -1.0039 0.1922 516.5609)">
	<stop  offset="0" style="stop-color:#FFE600;stop-opacity:0"/>
	<stop  offset="1" style="stop-color:#F59500"/>
</linearGradient>
<path style="fill:url(#SVGID_4_);" d="M323.566,456.864c0,0,0-1.271,0-3.617l-177.12-177.076c-6.872-5.495-15.97-8.247-27.298-8.247
	c-24.883,0-37.325,11.463-37.325,34.389v41.378c0,12.411,3.679,21.433,10.972,27.125l138.849,138.849h39.122
	C299.925,509.664,323.566,486.023,323.566,456.864z"/>
<linearGradient id="SVGID_5_" gradientUnits="userSpaceOnUse" x1="276.9894" y1="49.8635" x2="148.5594" y2="178.2935" gradientTransform="matrix(1.0039 0 0 -1.0039 0.1922 516.5609)">
	<stop  offset="0" style="stop-color:#FFE600;stop-opacity:0"/>
	<stop  offset="1" style="stop-color:#F59500"/>
</linearGradient>
<path style="fill:url(#SVGID_5_);" d="M239.621,260.095c-2.443-2.049-5.163-3.076-8.169-3.076c-4.089,0-6.876,1.678-8.362,5.033
	L120.825,467.479c-0.742,1.306-1.113,2.704-1.113,4.193c0,2.608,1.031,4.984,3.096,7.13l30.862,30.862h117.095
	c29.16,0,52.8-23.641,52.8-52.8c0,0,0-37.497,0-84.206v-28.206L239.621,260.095z"/>
<linearGradient id="SVGID_6_" gradientUnits="userSpaceOnUse" x1="335.4289" y1="4.6729" x2="208.3089" y2="131.8029" gradientTransform="matrix(1.0039 0 0 -1.0039 0.1922 516.5609)">
	<stop  offset="0" style="stop-color:#FFE600;stop-opacity:0"/>
	<stop  offset="1" style="stop-color:#F59500"/>
</linearGradient>
<path style="fill:url(#SVGID_6_);" d="M269.742,370.39c-6.872-5.495-15.971-8.247-27.298-8.247
	c-24.883,0-37.325,11.463-37.325,34.389v41.378c0,12.411,3.679,21.433,10.972,27.125l44.629,44.629h10.044
	c29.16,0,52.8-23.641,52.8-52.8c0,0,0-12.767,0-32.663L269.742,370.39z"/>
<linearGradient id="SVGID_7_" gradientUnits="userSpaceOnUse" x1="180.0369" y1="206.243" x2="180.0369" y2="-43.967" gradientTransform="matrix(1.0039 0 0 -1.0039 0.1922 516.5609)">
	<stop  offset="0" style="stop-color:#FFFFFF"/>
	<stop  offset="1" style="stop-color:#E2EDF2"/>
</linearGradient>
<path style="fill:url(#SVGID_7_);" d="M81.823,343.69v-41.378c0-22.926,12.442-34.389,37.325-34.389
	c11.327,0,20.427,2.752,27.298,8.247c6.867,5.5,10.305,14.216,10.305,26.141v41.378c0,11.93-3.437,20.645-10.305,26.141
	c-6.872,5.5-15.971,8.247-27.298,8.247C94.265,378.078,81.823,366.615,81.823,343.69z M101.673,343.223
	c0,10.751,5.824,16.124,17.474,16.124c11.833,0,17.752-5.373,17.752-16.124v-40.444c0-10.746-5.919-16.123-17.752-16.123
	c-11.651,0-17.474,5.377-17.474,16.123C101.674,302.779,101.674,343.223,101.673,343.223z M119.712,471.672
	c0-1.49,0.371-2.887,1.113-4.193l102.266-205.427c1.486-3.355,4.273-5.033,8.362-5.033c3.005,0,5.726,1.027,8.169,3.076
	c2.442,2.053,3.665,4.569,3.665,7.548c0,1.495-0.28,2.984-0.835,4.473L140.178,476.705c-1.675,3.539-4.832,5.313-9.476,5.313
	c-3.196,0-5.826-1.075-7.894-3.215C120.743,476.657,119.712,474.281,119.712,471.672z M205.12,438.486v-41.693
	c0-23.1,12.442-34.65,37.325-34.65c11.327,0,20.427,2.774,27.298,8.313c6.867,5.539,10.305,14.32,10.305,26.337v41.693
	c0,12.022-3.438,20.802-10.305,26.342c-6.872,5.539-15.971,8.308-27.298,8.308C217.561,473.136,205.12,461.586,205.12,438.486z
	 M224.97,438.097c0,10.872,5.824,16.308,17.474,16.308c11.833,0,17.752-5.434,17.752-16.308v-40.916
	c0-10.868-5.919-16.308-17.752-16.308c-11.651,0-17.474,5.439-17.474,16.308L224.97,438.097L224.97,438.097z"/>
<linearGradient id="SVGID_8_" gradientUnits="userSpaceOnUse" x1="309.6613" y1="319.8773" x2="105.8413" y2="433.3573" gradientTransform="matrix(1.0039 0 0 -1.0039 0.1922 516.5609)">
	<stop  offset="0" style="stop-color:#FFE600;stop-opacity:0"/>
	<stop  offset="1" style="stop-color:#F59500"/>
</linearGradient>
<path style="fill:url(#SVGID_8_);" d="M323.565,169.317v97.742L205.113,148.607c-0.763-0.991-1.593-1.955-2.49-2.865
	c-0.321-0.321-0.643-0.602-0.951-0.911c-0.214-0.201-0.429-0.389-0.656-0.562c-0.562-0.509-1.152-0.977-1.727-1.405
	c-11.46-8.582-27.511-8.113-38.435,1.42V70.036c12.624-6.293,27.444-6.439,40.163-0.429c1.405,0.656,2.798,1.405,4.15,2.223
	l75.961,45.892l20.228,12.236C315.131,138.285,323.565,153.198,323.565,169.317z"/>
<linearGradient id="SVGID_9_" gradientUnits="userSpaceOnUse" x1="170.2189" y1="424.5075" x2="207.5489" y2="424.5075" gradientTransform="matrix(1.0039 0 0 -1.0039 0.1922 516.5609)">
	<stop  offset="0" style="stop-color:#62E1FB"/>
	<stop  offset="1" style="stop-color:#00A2F3"/>
</linearGradient>
<path style="fill:url(#SVGID_9_);" d="M180.935,180.777c-11.09,0-20.081-8.991-20.081-20.081V20.081
	C160.854,8.991,169.845,0,180.935,0s20.081,8.991,20.081,20.081v140.614C201.017,171.786,192.025,180.777,180.935,180.777z"/>
<g>
</g>
<g>
</g>
<g>
</g>
<g>
</g>
<g>
</g>
<g>
</g>
<g>
</g>
<g>
</g>
<g>
</g>
<g>
</g>
<g>
</g>
<g>
</g>
<g>
</g>
<g>
</g>
<g>
</g>
</svg>
