<?xml version="1.0" encoding="iso-8859-1"?>
<!-- Generator: Adobe Illustrator 19.0.0, SVG Export Plug-In . SVG Version: 6.00 Build 0)  -->
<svg version="1.1" id="Layer_1" xmlns="http://www.w3.org/2000/svg" xmlns:xlink="http://www.w3.org/1999/xlink" x="0px" y="0px"
	 viewBox="0 0 512 512" style="enable-background:new 0 0 512 512;" xml:space="preserve">
<path style="fill:#F446AC;" d="M256,222.88c-4.662,0-8.44,3.779-8.44,8.44v39.385h16.879v-39.385
	C264.44,226.658,260.662,222.88,256,222.88z"/>
<g>
	<path style="fill:#FFD46E;" d="M160.352,428.242v45.011c0,4.661,3.778,8.44,8.44,8.44s8.44-3.779,8.44-8.44v-45.011H160.352z"/>
	<path style="fill:#FFD46E;" d="M334.769,428.242v45.011c0,4.661,3.778,8.44,8.44,8.44s8.44-3.779,8.44-8.44v-45.011H334.769z"/>
</g>
<path style="fill:#FFBE26;" d="M410.725,431.056H101.275c-4.662,0-8.44-3.779-8.44-8.44V281.96l-14.066-16.879h22.505
	c4.662,0,8.44,3.779,8.44,8.44v140.656h292.571V273.521c0-4.661,3.778-8.44,8.44-8.44h33.758l-25.319,16.879v140.656
	C419.165,427.277,415.387,431.056,410.725,431.056z"/>
<polygon style="fill:#55D0FF;" points="92.835,248.202 92.835,281.96 67.516,281.96 22.505,293.213 22.505,236.949 67.516,248.202 
	"/>
<polygon style="fill:#AAE8FF;" points="33.758,236.949 33.758,293.213 0,281.96 0,248.202 "/>
<polygon style="fill:#55D0FF;" points="512,248.202 512,281.96 466.989,293.213 466.989,236.949 "/>
<polygon style="fill:#AAE8FF;" points="478.242,236.949 478.242,293.213 444.484,281.96 419.165,281.96 419.165,248.202 
	444.484,248.202 "/>
<polygon style="fill:#2E84FF;" points="512,281.96 512,315.718 466.989,326.971 478.242,281.96 "/>
<polygon style="fill:#00B9FF;" points="478.242,281.96 478.242,326.971 444.484,315.718 444.484,281.96 "/>
<polygon style="fill:#2E84FF;" points="67.516,281.96 67.516,315.718 22.505,326.971 33.758,281.96 "/>
<polygon style="fill:#00B9FF;" points="33.758,281.96 33.758,326.971 0,315.718 0,281.96 "/>
<path style="fill:#5B4FFF;" d="M453.339,111.346c-19.839-33.398-55.251-55.859-95.423-58.424
	c-23.237-24.137-53.102-41.388-86.387-49.253L256,0l-22.505,34.681l177.793,95.508l66.954,118.013H512v-33.758
	C512,171.132,488.842,132.434,453.339,111.346z"/>
<g>
	<path style="fill:#2E84FF;" d="M58.661,111.346c19.839-33.398,55.251-55.859,95.423-58.424
		c23.237-24.137,53.102-41.388,86.387-49.253L256,0v34.681l-155.288,106.76l-66.954,106.76H0v-33.758
		C0,171.132,23.158,132.434,58.661,111.346z"/>
	<path style="fill:#2E84FF;" d="M478.242,236.949v11.253h-33.758v-33.758c0-25.645-18.443-46.969-42.772-51.47
		c-4.512-24.34-25.825-42.772-51.47-42.772c-8.102,0-15.776,1.834-22.629,5.131C313.22,97.55,287.204,76.744,256,69.373
		l-11.253-17.346L256,34.681v1.834c31.474,7.438,66.931,25.274,86.702,50.244c2.498-0.214,5.007-0.315,7.539-0.315
		c34.152,0,64.309,20.041,78.128,49.861c29.831,13.818,49.872,43.987,49.872,78.139L478.242,236.949L478.242,236.949z"/>
</g>
<path style="fill:#00B9FF;" d="M256,34.681v34.692c-31.204,7.371-57.22,28.177-71.612,55.96c-6.853-3.297-14.527-5.131-22.629-5.131
	c-25.645,0-46.958,18.432-51.47,42.772c-24.328,4.501-42.772,25.825-42.772,51.47v33.758H33.758v-11.253v-22.505
	c0-34.152,20.041-64.321,49.872-78.139c13.818-29.82,43.976-49.861,78.128-49.861c2.532,0,5.041,0.101,7.539,0.315
	c19.771-24.97,55.228-42.805,86.702-50.244V34.681z"/>
<g>
	<polygon style="fill:#5B4FFF;" points="67.516,315.718 67.516,512 33.758,512 11.253,413.859 33.758,315.718 	"/>
	<polygon style="fill:#5B4FFF;" points="512,315.718 512,512 478.242,512 455.736,413.859 478.242,315.718 	"/>
</g>
<g>
	<rect y="315.718" style="fill:#2E84FF;" width="33.758" height="196.282"/>
	<rect x="444.484" y="315.718" style="fill:#2E84FF;" width="33.758" height="196.282"/>
</g>
<path style="fill:#F446AC;" d="M376.967,342.039v74.955h-56.264l22.505-117.692C362.564,303.88,376.967,321.266,376.967,342.039z"/>
<path style="fill:#F774C1;" d="M343.209,299.301v117.692h-56.264l22.505-74.955C309.451,321.266,323.854,303.88,343.209,299.301z"/>
<path style="fill:#F446AC;" d="M202.549,342.039l22.506,74.955h-78.769l22.505-117.692
	C188.146,303.88,202.549,321.266,202.549,342.039z"/>
<path style="fill:#F774C1;" d="M168.791,299.301v117.692h-33.758v-74.955C135.033,321.266,149.436,303.88,168.791,299.301z"/>
<path style="fill:#F997D1;" d="M256,248.198c-30.641,7.241-53.451,34.751-53.451,67.605V416.99h106.901V315.804
	C309.451,282.949,286.641,255.44,256,248.198z"/>
<path style="fill:#5B4FFF;" d="M256,315.715c-10.876,0-19.692,8.816-19.692,19.692v81.582h39.385v-81.582
	C275.692,324.531,266.876,315.715,256,315.715z"/>
<polygon style="fill:#FFD46E;" points="376.967,405.74 376.967,439.499 343.209,439.499 320.703,422.619 343.209,405.74 "/>
<rect x="135.033" y="405.74" style="fill:#FFE9B7;" width="208.176" height="33.758"/>
<g>
</g>
<g>
</g>
<g>
</g>
<g>
</g>
<g>
</g>
<g>
</g>
<g>
</g>
<g>
</g>
<g>
</g>
<g>
</g>
<g>
</g>
<g>
</g>
<g>
</g>
<g>
</g>
<g>
</g>
</svg>
