<svg height="512pt" viewBox="0 0 512 512.00081" width="512pt" xmlns="http://www.w3.org/2000/svg"><path d="m470.5 397.992188v-246.378907c0-14.851562-12.042969-26.894531-26.894531-26.894531h-375.207031c-14.855469 0-26.898438 12.042969-26.898438 26.894531v246.378907c0 14.855468 12.042969 26.898437 26.898438 26.898437h375.207031c14.851562 0 26.894531-12.042969 26.894531-26.898437zm0 0" fill="#d476e2"/><path d="m443.605469 124.71875h-375.207031c-14.855469 0-26.898438 12.042969-26.898438 26.894531v14c0-14.851562 12.042969-26.894531 26.898438-26.894531h375.207031c14.851562 0 26.894531 12.042969 26.894531 26.894531v-14c0-14.851562-12.042969-26.894531-26.894531-26.894531zm0 0" fill="#ea82fa"/><path d="m132.789062 124.71875h20.15625v296.308594h-20.15625zm0 0" fill="#5fd4e3"/><path d="m132.789062 124.71875h20.15625v14h-20.15625zm0 0" fill="#69ebfc"/><path d="m470.5 226.859375v20.160156h-429v-20.160156zm0 0" fill="#5fd4e3"/><path d="m44.242188 383.617188h32.296874v105.671874h-32.296874zm0 0" fill="#69ebfc"/><path d="m443.546875 405.40625c-26.117187.621094-82.148437 15.433594-111.539063 18.382812-13.417968 1.34375-26.554687-10.335937-37.839843-11.671874 17.925781-5.050782 59.296875-3.300782 72.78125-10.269532 20.074219-10.378906-19.183594-22.066406-34.03125-24.816406-14.84375-2.753906-57.441407-2.820312-79.515625-3-22.078125-.183594-41.386719-13.4375-64.578125-11.828125-23.195313 1.613281-45.648438 15.542969-62.722657 31.734375-16.324218 2.414062-33.125 2.953125-49.566406 3.253906v72.929688c18.441406-.351563 44.367188 3.386718 67.375 3.027344 21.644532 1.359374 54.574219 4.085937 75.21875 2.738281 20.648438-1.351563 83.40625 9.910156 90.40625 10.253906 19.300782.949219 147.3125-40.734375 171.039063-51.289063 23.71875-10.558593-10.90625-30.0625-37.027344-29.445312zm0 0" fill="#ffefe4"/><path d="m480.574219 424.851562c-23.722657 10.554688-151.738281 52.234376-171.039063 51.289063-7-.339844-69.757812-11.601563-90.40625-10.253906-20.644531 1.347656-53.574218-1.378907-75.21875-2.738281-23.007812.359374-48.933594-3.378907-67.375-3.027344v10c18.441406-.351563 44.367188 3.386718 67.375 3.027344 21.644532 1.359374 54.574219 4.085937 75.21875 2.738281 20.648438-1.351563 83.40625 9.910156 90.40625 10.253906 19.300782.949219 147.3125-40.734375 171.039063-51.289063 8.71875-3.882812 9.535156-8.96875 5.808593-13.824218-1.285156 1.355468-3.167968 2.648437-5.808593 3.824218zm0 0" fill="#edd4c2"/><path d="m44.242188 477.546875h32.296874v11.742187h-32.296874zm0 0" fill="#5fd4e3"/><path d="m44.242188 512h-44.242188v-151.09375h44.242188zm0 0" fill="#6770e6"/><path d="m0 500.261719h44.242188v11.738281h-44.242188zm0 0" fill="#5861c7"/><g fill="#69ebfc"><path d="m193.84375 183.367188c6.332031 0 12.285156 2.929687 16.332031 8.03125 2.335938 2.945312 5.953125 9.171874 3.941407 17.769531-1.832032 7.824219-7.828126 13.824219-15.652344 15.65625l-32.917969 7.703125 7.703125-32.917969c1.828125-7.824219 7.828125-13.824219 15.652344-15.65625 1.652344-.386719 3.3125-.582031 4.941406-.582031zm-.003906-16.914063c-2.871094 0-5.816406.328125-8.792969 1.023437-14.03125 3.285157-24.988281 14.242188-28.273437 28.273438l-13.90625 59.449219 59.449218-13.90625c14.03125-3.285157 24.988282-14.242188 28.273438-28.273438 5.707031-24.394531-13.191406-46.570312-36.75-46.566406zm0 0"/><path d="m91.894531 183.367188c1.625 0 3.289063.195312 4.9375.582031 7.828125 1.832031 13.824219 7.832031 15.65625 15.65625l7.699219 32.917969-32.917969-7.703126c-7.824219-1.832031-13.824219-7.832031-15.652343-15.65625-2.011719-8.597656 1.605468-14.820312 3.941406-17.765624 4.046875-5.101563 10-8.03125 16.335937-8.03125zm0-16.914063c-23.558593 0-42.457031 22.171875-36.746093 46.566406 3.28125 14.03125 14.238281 24.988281 28.269531 28.273438l59.449219 13.90625-13.910157-59.449219c-3.28125-14.03125-14.238281-24.988281-28.269531-28.273438-2.976562-.695312-5.921875-1.023437-8.792969-1.023437zm0 0"/><path d="m79.476562 302.898438c-4.117187 0-7.96875-2.558594-9.421874-6.660157-1.847657-5.207031.875-10.921875 6.082031-12.769531 42.585937-15.101562 57.339843-49.980469 57.480469-50.332031 2.101562-5.109375 7.9375-7.546875 13.050781-5.449219 5.109375 2.097656 7.550781 7.941406 5.449219 13.046875-.726563 1.773437-18.382813 43.53125-69.296876 61.585937-1.109374.390626-2.234374.578126-3.34375.578126zm0 0"/><path d="m206.257812 302.898438c-1.109374 0-2.238281-.1875-3.34375-.578126-50.910156-18.054687-68.570312-59.8125-69.296874-61.582031-2.097657-5.109375.339843-10.953125 5.449218-13.050781 5.097656-2.089844 10.929688.332031 13.039063 5.417969.246093.582031 15.433593 35.449219 57.496093 50.367187 5.207032 1.847656 7.929688 7.5625 6.082032 12.765625-1.453125 4.101563-5.3125 6.660157-9.425782 6.660157zm0 0"/></g><path d="m165.546875 236.9375c0 12.527344-10.152344 22.683594-22.679687 22.683594-12.527344 0-22.683594-10.15625-22.683594-22.683594s10.15625-22.679688 22.683594-22.679688c12.527343 0 22.679687 10.152344 22.679687 22.679688zm0 0" fill="#8cf2ff"/><path d="m334.984375 295.480469h98.140625c4.074219 0 7.375-3.300781 7.375-7.375 0-4.070313-3.300781-7.375-7.375-7.375h-98.140625c-4.070313 0-7.375 3.304687-7.375 7.375 0 4.074219 3.300781 7.375 7.375 7.375zm0 0" fill="#b665c2"/><path d="m278.234375 324.757812h154.890625c4.074219 0 7.375-3.304687 7.375-7.375 0-4.074218-3.300781-7.375-7.375-7.375h-154.890625c-4.074219 0-7.375 3.300782-7.375 7.375-.003906 4.070313 3.300781 7.375 7.375 7.375zm0 0" fill="#b665c2"/><path d="m278.234375 355.519531h154.890625c4.074219 0 7.375-3.300781 7.375-7.375 0-4.070312-3.300781-7.371093-7.375-7.371093h-154.890625c-4.074219 0-7.375 3.300781-7.375 7.371093-.003906 4.074219 3.300781 7.375 7.375 7.375zm0 0" fill="#b665c2"/><path d="m477.976562 0h-173.9375c-18.789062 0-34.023437 15.234375-34.023437 34.023438v99.800781c0 18.789062 15.234375 34.023437 34.023437 34.023437h25.804688v35.871094c0 5.660156 6.84375 8.492188 10.84375 4.492188l40.363281-40.363282h96.925781c18.789063 0 34.023438-15.234375 34.023438-34.023437v-99.800781c0-18.789063-15.234375-34.023438-34.023438-34.023438zm0 0" fill="#69ebfc"/><path d="m304.039062 0h173.9375c18.792969 0 34.023438 15.230469 34.023438 34.023438v14.222656c0-18.789063-15.230469-34.023438-34.023438-34.023438h-173.9375c-18.792968 0-34.023437 15.234375-34.023437 34.023438v-14.222656c0-18.792969 15.230469-34.023438 34.023437-34.023438zm0 0" fill="#a1f1fc"/><path d="m386.035156 130.734375c-6.238281-.914063-11.785156-3.328125-16.65625-7.238281-2.839844-2.28125-5.203125-5.140625-7.089844-8.582032-2.292968-4.175781-.503906-9.421874 3.90625-11.222656 3.503907-1.433594 7.613282-.21875 9.566407 3.023438.628906 1.042968 1.351562 2.039062 2.167969 2.988281 2.242187 2.621094 4.941406 4.433594 8.105468 5.425781v-23.703125l-1.113281-.503906c-3.078125-1.160156-5.972656-2.53125-8.675781-4.117187-2.703125-1.574219-5.074219-3.410157-7.109375-5.488282-2.046875-2.078125-3.667969-4.429687-4.871094-7.050781-1.210937-2.621094-1.816406-5.554687-1.816406-8.800781 0-2.992188.546875-5.820313 1.625-8.484375 1.089843-2.660157 2.636719-5.035157 4.6875-7.109375 2.035156-2.078125 4.503906-3.8125 7.425781-5.179688 2.90625-1.375 6.1875-2.265625 9.847656-2.683594v-5.179687c0-3.066406 2.484375-5.550781 5.554688-5.550781 3.066406 0 5.554687 2.484375 5.554687 5.550781v5.429687c3.332031.496094 6.222657 1.371094 8.671875 2.621094 2.460938 1.246094 4.558594 2.703125 6.371094 4.304688.699219.617187 1.371094 1.351562 2.003906 2.144531 3.152344 3.949219 1.554688 9.847656-3.058594 11.902344-3.160156 1.410156-6.796874.527343-9.125-2.035157-1.222656-1.34375-2.828124-2.664062-4.863281-3.59375v22.339844c3.585938 1.5 6.816407 3.039063 9.738281 4.621094 2.90625 1.578125 5.402344 3.367188 7.484376 5.367188 2.085937 1.992187 3.660156 4.261718 4.738281 6.792968 1.089843 2.546875 1.625 5.476563 1.625 8.800782 0 3.746093-.644531 7.074218-1.925781 9.984374-1.296876 2.914063-3.019532 5.40625-5.1875 7.484376-2.167969 2.082031-4.675782 3.75-7.542969 4.996093-2.871094 1.246094-5.851563 2.121094-8.929688 2.617188v5.425781c0 3.066406-2.484375 5.554688-5.554687 5.554688-3.066406 0-5.554688-2.488282-5.554688-5.554688zm-8.226562-65.269531c0 1.996094.640625 3.722656 1.925781 5.175781 1.296875 1.460937 3.390625 2.9375 6.300781 4.433594v-18.21875c-2.496094.667969-4.480468 1.746093-5.984375 3.242187-1.503906 1.503906-2.242187 3.289063-2.242187 5.367188zm26.953125 40.1875c0-2.164063-.582031-3.957032-1.753907-5.367188-1.164062-1.417968-3.113281-2.828125-5.863281-4.246094v19.09375c2.253907-.746093 4.082031-1.933593 5.5-3.558593 1.402344-1.621094 2.117188-3.597657 2.117188-5.921875zm0 0" fill="#6770e6"/></svg>