<?xml version="1.0"?>
<svg xmlns="http://www.w3.org/2000/svg" xmlns:xlink="http://www.w3.org/1999/xlink" version="1.1" id="Capa_1" x="0px" y="0px" viewBox="0 0 512.001 512.001" style="enable-background:new 0 0 512.001 512.001;" xml:space="preserve" width="512px" height="512px" class=""><g><path style="fill:#4680FF" d="M225.341,283.859h-68.906c-51.395,0-93.208,41.813-93.208,93.208v105.55c0,4.142,3.358,7.5,7.5,7.5  h240.321c4.142,0,7.5-3.358,7.5-7.5v-105.55C318.549,325.672,276.736,283.859,225.341,283.859z" data-original="#5C9CEE" class="" data-old_color="#5C9CEE"/><path style="fill:#536DFE" d="M225.341,283.859h-27.333c51.395,0,93.208,41.813,93.208,93.208v105.55c0,4.142-3.358,7.5-7.5,7.5  h27.333c4.142,0,7.5-3.358,7.5-7.5v-105.55C318.549,325.672,276.736,283.859,225.341,283.859z" data-original="#3580D3" class="active-path" data-old_color="#3580D3"/><path style="fill:#444966;" d="M201.577,283.859h-21.379l-28.561,97.077c-0.613,2.082-0.053,4.332,1.463,5.885l33.494,34.305  c2.354,2.411,6.232,2.411,8.586,0l33.494-34.305c1.516-1.553,2.076-3.803,1.463-5.885L201.577,283.859z" data-original="#444966" class=""/><path style="fill:#F9C295;" d="M190.888,0L190.888,0c-57.371,0-103.88,46.509-103.88,103.88v50.083  c0,57.372,46.509,103.88,103.88,103.88l0,0c57.371,0,103.88-46.509,103.88-103.88V103.88C294.768,46.509,248.259,0,190.888,0z" data-original="#F9C295"/><path style="fill:#E59F6A;" d="M190.888,0c-2.332,0-4.644,0.085-6.938,0.236c47.357,3.571,84.805,48.605,84.805,103.644v50.082  c0,55.04-37.447,100.073-84.805,103.644c2.294,0.151,4.606,0.236,6.938,0.236c57.371,0,103.88-46.509,103.88-103.88V103.88  C294.768,46.509,248.259,0,190.888,0z" data-original="#E59F6A"/><path style="fill:#444966;" d="M258.476,25.044c0.001-0.004,0.002-0.008,0.003-0.012c-0.192-0.164-0.392-0.318-0.585-0.481  c-0.796-0.672-1.599-1.336-2.415-1.984c-0.372-0.296-0.748-0.586-1.123-0.877c-0.748-0.578-1.503-1.147-2.266-1.704  c-0.445-0.326-0.893-0.648-1.344-0.967c-0.7-0.494-1.406-0.978-2.119-1.455c-0.524-0.351-1.047-0.7-1.577-1.042  c-0.639-0.411-1.286-0.811-1.935-1.209c-0.614-0.377-1.226-0.754-1.848-1.119c-0.548-0.321-1.105-0.628-1.66-0.939  c-0.731-0.411-1.46-0.823-2.202-1.216c-0.382-0.202-0.771-0.392-1.155-0.589C224.047,4.148,207.959,0,190.888,0  c-57.371,0-103.88,46.509-103.88,103.88v9.603c15.297,6.749,32.199,10.524,49.993,10.524c36.541,0,69.371-15.824,92.065-40.971  c14.35,22.111,38.156,37.519,65.702,40.452V103.88C294.768,72.328,280.684,44.088,258.476,25.044z" data-original="#444966" class=""/><path style="fill:#2E344C;" d="M294.614,98.241c-0.018-0.342-0.043-0.683-0.065-1.024c-0.038-0.595-0.077-1.189-0.124-1.781  c-0.028-0.35-0.061-0.698-0.093-1.047c-0.053-0.584-0.108-1.167-0.171-1.749c-0.037-0.343-0.077-0.685-0.117-1.027  c-0.07-0.591-0.143-1.18-0.223-1.768c-0.044-0.323-0.089-0.645-0.135-0.967c-0.089-0.616-0.184-1.23-0.284-1.842  c-0.047-0.287-0.093-0.575-0.143-0.861c-0.115-0.668-0.237-1.334-0.365-1.998c-0.043-0.224-0.085-0.45-0.129-0.674  c-0.155-0.777-0.319-1.551-0.491-2.322c-0.024-0.107-0.046-0.215-0.07-0.322c-5.012-22.117-17.089-41.548-33.728-55.815  c0.001-0.004,0.002-0.008,0.003-0.012c-0.192-0.164-0.393-0.318-0.585-0.48c-0.796-0.673-1.599-1.336-2.415-1.984  c-0.372-0.296-0.748-0.586-1.123-0.877c-0.748-0.578-1.503-1.147-2.266-1.704c-0.445-0.326-0.893-0.648-1.344-0.967  c-0.7-0.494-1.406-0.978-2.119-1.455c-0.524-0.351-1.047-0.7-1.577-1.042c-0.639-0.411-1.286-0.811-1.935-1.209  c-0.614-0.377-1.226-0.754-1.848-1.119c-0.548-0.321-1.105-0.628-1.66-0.939c-0.731-0.411-1.46-0.823-2.202-1.216  c-0.382-0.202-0.771-0.392-1.155-0.589c-10.64-5.471-22.338-9.17-34.713-10.682c-0.058-0.007-0.115-0.013-0.173-0.02  c-0.89-0.107-1.785-0.201-2.682-0.286c-0.238-0.022-0.477-0.043-0.715-0.064c-0.728-0.064-1.459-0.118-2.192-0.166  c-0.303-0.02-0.606-0.04-0.91-0.058c-0.705-0.04-1.412-0.071-2.12-0.096c-0.296-0.011-0.591-0.025-0.888-0.034  c-0.969-0.027-1.941-0.044-2.916-0.044c-0.017,0-0.035-0.001-0.052-0.001c-1.117,0-2.229,0.022-3.336,0.059  c-0.128,0.004-0.256,0.01-0.385,0.015c-1.076,0.04-2.149,0.092-3.217,0.163c47.357,3.571,84.805,48.605,84.805,103.644v12.754  c8.119,3.519,16.858,5.879,26.013,6.854V103.88c0-0.946-0.014-1.888-0.039-2.828c-0.008-0.291-0.023-0.581-0.033-0.872  C294.673,99.533,294.649,98.885,294.614,98.241z" data-original="#2E344C"/><path style="fill:#E59F6A;" d="M190.891,226.06c-13.981,0-27.264-7.312-35.531-19.558c-2.461-3.645-1.501-8.595,2.144-11.056  c3.645-2.462,8.596-1.501,11.056,2.144c5.382,7.972,13.521,12.543,22.332,12.543c8.812,0,16.947-4.57,22.318-12.539  c2.459-3.646,7.408-4.61,11.054-2.152c3.647,2.458,4.61,7.408,2.152,11.054C218.158,218.747,204.878,226.06,190.891,226.06z" data-original="#E59F6A"/><path style="fill:#EBEEF2;" d="M448.263,501.777l-49.972-128.226c-1.123-2.88-3.897-4.777-6.988-4.777H200.847  c-3.091,0-5.866,1.896-6.988,4.777l-49.972,128.226c-0.899,2.308-0.601,4.911,0.796,6.956c1.398,2.045,3.715,3.268,6.192,3.268  h290.399c2.477,0,4.794-1.223,6.192-3.268C448.864,506.688,449.162,504.084,448.263,501.777z" data-original="#EBEEF2"/><path style="fill:#1B3D66;" d="M384.268,461.151H207.882c-4.142,0-7.5-3.358-7.5-7.5s3.358-7.5,7.5-7.5h176.387  c4.142,0,7.5,3.358,7.5,7.5S388.41,461.151,384.268,461.151z" data-original="#1B3D66"/><path style="fill:#FCAB29;" d="M354.303,398.509L320.71,424.85c-5.783,4.534-14.316,1.428-15.832-5.762l-8.803-41.771  l85.639-235.292c1.921-5.278,7.757-8,13.036-6.079l39.113,14.236c5.278,1.921,8,7.757,6.079,13.036L354.303,398.509z" data-original="#FCAB29"/><path style="fill:#DD8D19;" d="M433.864,150.181l-15.352-5.588c1.135,0.413,0.497,5.027-1.424,10.305L331.449,390.19l-16.953,32.397  c-1.459,2.789-2.647,4.016-3.302,3.777c3.046,1.109,6.625,0.751,9.516-1.516l33.593-26.34l85.639-235.293  C441.863,157.938,439.142,152.102,433.864,150.181z" data-original="#DD8D19"/><path style="fill:#656D88" d="M320.709,424.85l33.593-26.34l-58.228-21.193l8.803,41.771  C306.393,426.278,314.927,429.384,320.709,424.85z" data-original="#656D88" class="" data-old_color="#656D88"/><path style="fill:#2E344C;" d="M354.303,398.509l-22.854-8.318l-16.953,32.397c-1.459,2.789-2.647,4.016-3.302,3.777  c2.151,0.783,4.565,0.816,6.819-0.02c0.937-0.347,1.848-0.83,2.697-1.495L354.303,398.509z" data-original="#2E344C"/></g> </svg>
