<?xml version="1.0" encoding="iso-8859-1"?>
<!-- Generator: Adobe Illustrator 19.0.0, SVG Export Plug-In . SVG Version: 6.00 Build 0)  -->
<svg version="1.1" id="Layer_1" xmlns="http://www.w3.org/2000/svg" xmlns:xlink="http://www.w3.org/1999/xlink" x="0px" y="0px"
	 viewBox="0 0 512 512" style="enable-background:new 0 0 512 512;" xml:space="preserve">
<g>
	<polygon style="fill:#FF7058;" points="464,444.8 388.267,445.867 349.867,512 299.733,426.667 264.533,366.933 379.733,299.733
		414.933,360.533 	"/>
	<polygon style="fill:#FF7058;" points="247.467,366.933 212.267,426.667 162.133,512 123.733,445.867 48,444.8 97.067,360.533
		132.267,299.733 	"/>
</g>
<g>
	<path style="opacity:0.1;fill:#231F20;enable-background:new    ;" d="M132.267,299.733l115.2,67.2l-35.2,59.733
		c-4.267-3.2-7.467-6.4-10.667-7.467c-1.067,0-2.133,0-3.2,0c-4.267,0-10.667,1.067-16,2.133c-7.467,2.133-14.933,3.2-22.4,3.2
		s-13.867-1.067-20.267-5.333c-13.867-8.533-19.2-23.467-23.467-36.267c-2.133-7.467-5.333-14.933-7.467-18.133
		c-2.133-2.133-6.4-4.267-10.667-5.333L132.267,299.733z"/>
	<path style="opacity:0.1;fill:#231F20;enable-background:new    ;" d="M414.933,360.533c-4.267,2.133-8.533,3.2-10.667,5.333
		c-3.2,3.2-5.333,10.667-7.467,18.133c-4.267,13.867-9.6,28.8-23.467,36.267c-5.333,3.2-11.733,5.333-20.267,5.333
		c-7.467,0-14.933-1.067-22.4-3.2c-6.4-1.067-11.733-2.133-16-2.133c-1.067,0-2.133,0-3.2,0c-3.2,1.067-6.4,3.2-10.667,7.467
		L265.6,368l115.2-67.2L414.933,360.533z"/>
</g>
<path style="fill:#e5e4e2;" d="M473.6,217.6c0,18.133-26.667,33.067-30.933,50.133C438.4,284.8,453.333,311.467,444.8,326.4
	c-8.533,16-39.467,14.933-52.267,27.733c-12.8,12.8-11.733,42.667-27.733,52.267c-14.933,8.533-41.6-6.4-58.667-2.133
	c-17.067,4.267-32,30.933-50.133,30.933c-18.133,0-33.067-26.667-50.133-30.933C188.8,400,162.133,414.933,147.2,406.4
	c-16-8.533-14.933-39.467-27.733-52.267C106.667,341.333,76.8,342.4,67.2,326.4c-8.533-14.933,6.4-41.6,2.133-58.667
	S38.4,235.733,38.4,217.6s26.667-33.067,30.933-50.133S58.667,123.733,67.2,108.8c8.533-16,39.467-14.933,52.267-27.733
	S131.2,38.4,147.2,28.8c14.933-8.533,41.6,6.4,58.667,2.133C222.933,26.667,237.867,0,256,0c18.133,0,33.067,26.667,50.133,30.933
	C323.2,35.2,349.867,20.267,364.8,28.8c16,8.533,14.933,39.467,27.733,52.267c12.8,12.8,42.667,11.733,52.267,27.733
	c8.533,14.933-6.4,41.6-2.133,58.667S473.6,199.467,473.6,217.6z"/>
<polygon style="fill:#FF7058;" points="256,128 277.333,193.067 346.667,193.067 290.133,233.6 311.467,299.733 256,259.2
	200.533,299.733 221.867,233.6 165.333,193.067 234.667,193.067 "/>
<path style="fill:#ffb6aa;" d="M256,370.133c-84.267,0-152.533-68.267-152.533-152.533S171.733,65.067,256,65.067
	S408.533,133.333,408.533,217.6S340.267,370.133,256,370.133z M256,97.067c-66.133,0-120.533,54.4-120.533,120.533
	S189.867,338.133,256,338.133s120.533-54.4,120.533-120.533S322.133,97.067,256,97.067z"/>
<path style="opacity:0.1;fill:#231F20;enable-background:new    ;" d="M256,370.133c-82.133,0-149.333-66.133-152.533-147.2
	c0,2.133,0,3.2,0,5.333c0,84.267,68.267,152.533,152.533,152.533s152.533-68.267,152.533-152.533c0-2.133,0-3.2,0-5.333
	C405.333,305.067,338.133,370.133,256,370.133z"/>
<g>
</g>
<g>
</g>
<g>
</g>
<g>
</g>
<g>
</g>
<g>
</g>
<g>
</g>
<g>
</g>
<g>
</g>
<g>
</g>
<g>
</g>
<g>
</g>
<g>
</g>
<g>
</g>
<g>
</g>
</svg>
