<?xml version="1.0"?>
<svg xmlns="http://www.w3.org/2000/svg" height="512px" viewBox="0 -106 512 512" width="512px" class=""><g><path d="m181.800781 290.699219h320.15625v-68.113281c-39.882812 0-72.214843-32.332032-72.214843-72.214844 0-39.882813 32.332031-72.214844 72.214843-72.214844v-68.113281h-491.914062v68.113281c39.882812 0 72.214843 32.332031 72.214843 72.214844 0 39.882812-32.332031 72.214844-72.214843 72.214844v68.113281h89.292969" fill="#91def5" data-original="#91DEF5" class="" data-old_color="#91def5" style="fill:#4680FF"/><path d="m206.757812 87.480469c-11.476562-11.472657-30.078124-11.472657-41.550781 0-11.476562 11.472656-11.476562 30.078125 0 41.550781 11.472657 11.472656 30.074219 11.472656 41.550781 0 11.472657-11.472656 11.472657-30.078125 0-41.550781zm0 0" fill="#f0f5f9" data-original="#F0F5F9"/><path d="m296.875 176.53125c-11.472656-11.472656-30.074219-11.472656-41.550781 0-11.472657 11.472656-11.472657 30.078125 0 41.550781 11.476562 11.472657 30.078125 11.472657 41.550781 0 11.476562-11.472656 11.476562-30.078125 0-41.550781zm0 0" fill="#f0f5f9" data-original="#F0F5F9"/><path d="m501.957031 88.199219c5.546875 0 10.042969-4.496094 10.042969-10.042969v-68.113281c0-5.546875-4.496094-10.042969-10.042969-10.042969h-491.914062c-5.546875 0-10.042969 4.496094-10.042969 10.042969v68.113281c0 5.546875 4.496094 10.042969 10.042969 10.042969 34.28125 0 62.171875 27.890625 62.171875 62.171875s-27.890625 62.171875-62.171875 62.171875c-5.546875 0-10.042969 4.496093-10.042969 10.042969v68.113281c0 5.546875 4.496094 10.042969 10.042969 10.042969h89.292969c5.546874 0 10.042968-4.496094 10.042968-10.042969s-4.496094-10.042969-10.042968-10.042969h-79.25v-48.636719c40.636718-4.96875 72.214843-39.691406 72.214843-81.648437 0-41.957032-31.578125-76.679688-72.214843-81.648438v-48.636718h344.933593v20.082031c0 5.546875 4.496094 10.042969 10.042969 10.042969s10.042969-4.496094 10.042969-10.042969v-20.082031h106.808593v48.636718c-40.636718 4.96875-72.214843 39.691406-72.214843 81.648438 0 41.957031 31.578125 76.679687 72.214843 81.648437v48.636719h-106.808593v-20.085938c0-5.546874-4.496094-10.039062-10.042969-10.039062s-10.042969 4.492188-10.042969 10.039062v20.085938h-183.21875c-5.546875 0-10.042969 4.496094-10.042969 10.042969s4.496094 10.042969 10.042969 10.042969h320.15625c5.546875 0 10.042969-4.496094 10.042969-10.042969v-68.113281c0-5.546876-4.496094-10.042969-10.042969-10.042969-34.28125 0-62.171875-27.890625-62.171875-62.171875s27.890625-62.171875 62.171875-62.171875zm0 0" data-original="#000000" class="active-path" style="fill:#101B33" data-old_color="#000000"/><path d="m375.0625 197.148438c5.546875 0 10.042969-4.496094 10.042969-10.042969v-73.46875c0-5.546875-4.496094-10.042969-10.042969-10.042969s-10.042969 4.496094-10.042969 10.042969v73.46875c0 5.546875 4.496094 10.042969 10.042969 10.042969zm0 0" data-original="#000000" class="active-path" style="fill:#101B33" data-old_color="#000000"/><path d="m213.859375 136.132812c7.445313-7.445312 11.546875-17.347656 11.546875-27.875 0-10.53125-4.101562-20.433593-11.546875-27.878906-15.371094-15.371094-40.382813-15.371094-55.753906 0-7.445313 7.445313-11.546875 17.347656-11.546875 27.878906 0 10.527344 4.101562 20.429688 11.546875 27.875 7.6875 7.6875 17.78125 11.527344 27.878906 11.527344 10.09375 0 20.191406-3.839844 27.875-11.527344zm-47.214844-27.875c0-5.167968 2.011719-10.023437 5.664063-13.675781 3.769531-3.769531 8.722656-5.65625 13.675781-5.65625s9.902344 1.886719 13.671875 5.65625c3.65625 3.652344 5.667969 8.507813 5.667969 13.675781 0 5.164063-2.011719 10.019532-5.667969 13.671876-7.539062 7.542968-19.808594 7.542968-27.347656 0-3.652344-3.652344-5.664063-8.507813-5.664063-13.671876zm0 0" data-original="#000000" class="active-path" style="fill:#101B33" data-old_color="#000000"/><path d="m248.230469 169.429688c-15.375 15.371093-15.375 40.382812 0 55.753906 7.683593 7.6875 17.78125 11.53125 27.875 11.53125 10.097656 0 20.191406-3.84375 27.878906-11.53125 15.371094-15.371094 15.371094-40.382813 0-55.753906-15.375-15.371094-40.386719-15.367188-55.753906 0zm41.550781 14.203124c7.539062 7.539063 7.539062 19.808594 0 27.347657-7.539062 7.539062-19.808594 7.542969-27.347656 0-7.542969-7.539063-7.542969-19.808594 0-27.347657 3.769531-3.769531 8.71875-5.65625 13.671875-5.65625s9.90625 1.886719 13.675781 5.65625zm0 0" data-original="#000000" class="active-path" style="fill:#101B33" data-old_color="#000000"/><path d="m185.714844 212.589844 104.601562-104.601563c3.917969-3.921875 3.917969-10.28125 0-14.203125-3.925781-3.921875-10.28125-3.921875-14.203125 0l-104.601562 104.601563c-3.628907 3.628906-3.902344 9.617187-.597657 13.550781 3.738282 4.449219 10.6875 4.761719 14.800782.652344zm0 0" data-original="#000000" class="active-path" style="fill:#101B33" data-old_color="#000000"/><path d="m140.386719 280.554688c-4.1875 0-8.019531 2.703124-9.441407 6.640624-1.421874 3.929688-.1875 8.476563 3.042969 11.140626 3.238281 2.667968 7.894531 3.027343 11.503907.902343 3.605468-2.121093 5.550781-6.421875 4.753906-10.527343-.902344-4.667969-5.097656-8.15625-9.859375-8.15625zm0 0" data-original="#000000" class="active-path" style="fill:#101B33" data-old_color="#000000"/></g> </svg>
